<svg id="svg" version="1.1" viewBox="0 0 300 168.91891891891896" width="300" height="168.91891891891896" xmlns="http://www.w3.org/2000/svg"><svg xmlns="http://www.w3.org/2000/svg"><defs><clipPath id="clip-1"><rect x="0" y="0" transform="scale(0.14648,0.1465)" width="2048" height="1153" fill="none"/></clipPath></defs><g clip-path="url(#clip-1)" fill="none" fill-rule="nonzero" stroke="none" stroke-width="1" stroke-linecap="butt" stroke-linejoin="miter" stroke-miterlimit="10" stroke-dasharray="" stroke-dashoffset="0" font-family="none" font-weight="none" font-size="none" text-anchor="none" style="mix-blend-mode: normal"><path d="M133.16836,68.2365c-1.46719,-3.22719 -2.61563,-8.38734 -1.65205,-11.93743c0.18281,-0.67392 1.37651,-1.51324 1.36743,-1.8373c-0.2127,-7.26937 0.3353,-16.01272 7.95776,-19.24093c5.64873,-2.39241 13.77422,-2.03421 18.47637,-0.20276c8.15039,2.99395 9.16699,12.30456 8.79785,19.83134c-0.00586,0.11046 1.27441,0.83961 1.41797,1.34388c0.43506,1.53917 0.3252,3.14134 0.18018,4.72753c-0.1875,2.07303 -0.44824,4.17565 -1.1748,6.14496c-0.60205,1.63469 -1.34033,1.51485 -2.80225,1.47661c-1.875,3.94213 -3.1377,8.46807 -6.18896,11.74345c-0.48633,0.52258 -2.72314,2.27594 -1.90137,2.83866c2.23682,-0.27176 5.77002,-6.82825 7.01807,-8.6115c-0.72363,3.60194 -1.00342,7.3457 -1.08252,11.02031c3.32813,1.85635 7.3667,2.59488 10.40918,5.46782c6.35742,-1.19196 13.43115,-1.15592 19.00781,2.52822c3.25049,2.14745 4.49707,4.81075 6.7998,7.72837c0.88184,1.11665 2.97217,2.09691 4.06055,3.10046c2.98828,2.5036 6.35449,6.20971 8.32617,9.54634c-1.62598,-3.81555 -0.38086,-6.31007 0.71484,-10.06511c1.9585,-6.70797 1.48535,-11.09459 0.08643,-17.78923c-1.44873,-0.8109 -3.27979,-1.78559 -4.6333,-2.70124c-1.77393,-1.20016 -7.00635,-5.9879 -6.20947,-8.27776c0.78223,-0.98231 2.00244,-0.66454 3.12451,-0.56404c1.5293,1.50767 2.02588,2.13573 3.90381,3.27246c-1.12207,-1.6448 -2.81104,-3.15877 -2.41699,-5.32292c0.41602,-2.28253 3.34277,-2.76116 5.24414,-2.57612c2.63232,0.25638 5.24707,0.42061 7.8501,0.83493c3.14355,0.59964 4.06934,2.04329 4.80322,4.84503c3.5083,0.05523 7.31543,0.48595 10.88525,0.62293c2.99561,0.11515 6.96973,0.0271 9.84961,0.37974c-0.26514,1.73548 -0.38672,2.98238 -0.3501,4.75288c-3.9624,-0.06754 -7.92334,-0.19632 -11.88135,-0.38633c-2.58691,-0.11662 -5.8418,-0.33447 -8.3877,-0.27997c-0.15088,2.50624 -1.55859,6.53202 -1.35791,8.20773c0.45996,3.83869 2.05957,9.13847 2.96484,13.02214c2.27637,9.5878 2.34082,19.56808 0.18604,29.184c-0.55957,2.42991 -1.37109,4.62278 -2.00977,6.94926c-9.28418,-0.02696 -24.90234,-0.79185 -32.00684,-7.68339c-1.77246,-1.71981 -3.48926,-4.45079 -4.84863,-6.56176c-2.50342,4.49591 -10.33887,8.35951 -15.11572,9.50326c-1.63037,0.39058 -6.27979,1.49917 -7.87939,1.33905c-0.88916,0.00938 -2.2793,0.01231 -3.08057,0.34238c1.29346,0.09479 4.59229,0.31586 5.74805,0.00381c3.6709,-0.02417 8.03613,-0.08424 11.64111,-0.55745c1.25977,-0.1654 3.18164,-0.86745 4.79883,-1.14009c-0.68994,2.75237 -0.82617,4.07706 -2.60303,6.56645c-0.45557,0.63802 -1.85449,2.66681 -2.14453,3.32285c-2.58252,5.86689 -4.81494,14.6498 -5.28076,20.89086c-3.80859,-0.00293 -7.55713,0.19632 -11.3584,0.25492c-6.73389,0.10402 -13.51758,-0.10988 -20.24824,0.05274c-5.11245,0.12306 -10.18022,-0.30619 -15.248,-0.24759c-0.94116,-7.08053 -2.70439,-14.61962 -5.57593,-21.19735c-0.3271,-0.74922 -1.64502,-2.39959 -2.18335,-3.19745c-1.39761,-2.07186 -1.8873,-4.02329 -2.5916,-6.37673c1.84468,0.29315 3.69976,0.84914 5.56919,1.12237c2.98579,0.43658 6.02988,0.44479 9.04365,0.49255c1.1877,0.27001 5.89175,0.19075 7.23062,0.05948c-0.88447,-0.27704 -2.44834,-0.39131 -3.37456,-0.37622c-8.19536,-0.59612 -16.83135,-3.59022 -22.33813,-9.94658c-0.2436,-0.28261 -0.47842,-0.57254 -0.7043,-0.8695c-3.55942,6.44089 -7.01367,9.73269 -14.27373,11.77407c-6.36343,1.78925 -15.18794,2.59165 -21.84258,2.51005c-5.69883,-17.31294 -3.9958,-31.58886 1.17114,-48.79999c0.92007,-3.06471 -0.6145,-6.40075 -1.16953,-9.41243c-4.15605,0.05201 -8.31035,0.20657 -12.45894,0.46368c-2.19917,0.15295 -6.36709,0.60433 -8.3332,0.52009c-0.09448,-1.15474 -0.3397,-3.54759 0.36914,-4.47525c1.68413,-0.87228 17.87681,-1.44072 20.74819,-1.54005c1.65176,-5.02039 3.33369,-4.09625 8.0981,-4.56301c2.77148,-0.27147 7.86123,-2.05735 9.08247,1.43603c0.22251,0.64623 0.14561,1.71483 0.52251,2.06849c1.72031,0.25638 4.46426,-0.83141 3.81006,2.51166c-0.53071,2.71208 -3.07061,5.05482 -5.18071,6.64278c-1.6856,1.26843 -3.20464,1.53595 -4.91221,2.40017c-0.63091,3.1053 -1.50117,6.70636 -1.44946,9.87934c0.04863,2.99498 0.73564,6.15624 1.41533,9.06742c1.10171,4.12057 2.40293,5.11796 0.64673,9.32512c2.31035,-3.18426 4.627,-6.38346 7.66025,-8.93263c1.39409,-1.17188 3.23306,-2.05867 4.53896,-3.28315c0.98862,-0.92708 1.9207,-2.75896 2.73076,-3.92894c4.9853,-7.20008 15.30293,-8.33226 23.16768,-6.24106c4.14741,-3.09094 6.52705,-3.56165 11.0439,-5.43544c0.0334,-3.63872 -0.58066,-7.73057 -1.02158,-11.39111c0.97017,1.66897 4.8832,8.59948 6.94263,8.5734c0.47505,-0.68344 -0.75308,-1.75233 -1.24951,-2.24019c-3.36226,-3.30483 -4.74697,-7.89978 -6.75762,-12.00233c-0.90908,-0.13801 -1.2624,-0.19573 -2.13164,-0.49972zM131.26934,130.02801l0.23657,-0.16584c-0.38027,-0.91667 -3.90117,-1.82749 -4.8564,-1.83525l-0.09756,-0.00132c-0.05771,0.00176 -0.11528,0.00366 -0.17285,0.00542l-0.49204,0.41446l0.02607,0.16731c1.47832,0.72812 3.71704,1.22887 5.3562,1.41523zM170.39502,129.82203c1.20996,-0.35234 2.70264,-0.73193 3.75586,-1.40453c0.04102,-0.11501 -0.00732,-0.12072 -0.08789,-0.29901l0.1582,0.09655l-0.15381,0.20071l-0.2417,-0.35014c-0.49658,-0.03604 -0.8877,-0.08439 -1.38574,-0.0022c-0.92725,0.27191 -3.20361,0.9552 -3.63135,1.76581c0.32227,0.29491 1.16895,0.08702 1.58643,-0.00718z" fill="#c60007"/><path d="M246.82764,46.3314c3.8584,-0.23865 15.39551,0.08922 17.96631,3.23305c4.77246,5.83569 4.28467,14.47985 4.67285,21.50984c0.65332,11.81187 -0.36475,23.26613 -4.36377,34.47206c-3.22412,9.20322 -5.52979,7.43653 -13.75049,6.99541c-2.94434,-0.07179 -8.30713,0.42398 -10.604,-1.78998c-3.62256,-3.49177 -3.4248,-22.93561 -3.44531,-28.31436c2.08008,0.2139 7.11768,0.43131 9.24316,0.45929c-0.08496,-2.61714 -0.07178,-4.98494 -0.04834,-7.6097c-0.95508,0.01773 -7.88672,-0.10841 -8.34961,-0.25008c-0.34131,-0.80445 0,-3.00025 0.12598,-3.96688c0.98438,-7.51257 2.23242,-15.46934 5.80811,-22.23796c0.67236,-1.27312 1.43555,-1.96755 2.74512,-2.50067z" fill="#c60007"/><path d="M51.31113,46.65327l0.26426,-0.01113c1.24146,-0.04923 2.40176,-0.03062 3.32285,0.93484c4.27456,4.48067 7.08428,21.24496 7.23633,26.99934c-2.79419,0.06739 -5.56318,0.38194 -8.33203,0.44713c0.12979,1.58825 0.13184,6.67706 0.0312,8.24436c2.7542,-0.35791 6.14663,-0.51423 8.9729,-0.76153c0,5.61725 0.30059,24.38087 -3.46099,28.36226c-1.91294,2.02454 -6.06343,1.6782 -8.6373,1.76757c-2.54868,0.0942 -5.07437,0.49167 -7.61792,0.64652c-1.59756,0.09713 -3.05317,-0.20115 -4.26621,-1.30506c-4.3897,-3.99472 -7.56782,-21.59086 -7.8646,-27.74065c-0.2064,-4.27469 -0.18428,-8.57414 -0.12422,-12.85263c0.09111,-6.48865 -0.24155,-16.93526 4.42471,-21.97953c0.72085,-0.77911 1.58921,-1.28337 2.59072,-1.62106c3.48369,-1.17496 9.71909,-0.98407 13.4603,-1.13042z" fill="#c60007"/><path d="M25.06406,50.75113c1.40376,-0.12526 3.66431,-0.07999 5.1312,-0.09581c-0.99302,3.47199 -1.84248,5.97369 -2.41919,9.63087c-0.83101,5.26945 -0.70547,9.67101 -0.55342,14.94368c0.27275,9.44906 1.33213,18.76333 3.93853,27.8766c0.55972,1.95744 1.48667,4.34589 2.19595,6.29014c-2.45215,-0.1465 -4.90679,-0.24378 -7.36274,-0.29213c-1.34399,-0.05743 -2.75903,-0.04 -4.10991,-0.04337c-6.70854,-8.72313 -7.33925,-26.91012 -7.54368,-37.61676c-0.11082,-5.8039 -0.13298,-13.90409 3.16146,-18.82018c1.2605,-1.88096 5.52393,-1.72845 7.56182,-1.87305z" fill="#c60007"/><path d="M269.73926,50.70908c2.16211,-0.00674 9.5127,-0.22474 11.71289,1.10845c0.90381,0.54792 1.8999,2.44925 2.20166,3.52605c3.7998,13.53769 2.77441,41.94859 -5.20166,53.20126c-1.18652,1.45024 -4.37842,0.81471 -6.16846,0.91902c-1.70654,0.09933 -3.62988,0.1383 -5.33496,0.12218c1.55273,-3.68545 2.80225,-7.49103 3.73682,-11.37925c2.67188,-11.27669 3.28418,-26.35589 1.59668,-37.89292c-0.5332,-3.63989 -1.86914,-6.39943 -2.54297,-9.60479z" fill="#c60007"/><path d="M168.36475,74.70597c10.64795,-0.20745 21.48193,0.16452 32.1709,-0.05318c0.2124,0.77471 0.39111,1.38622 0.65625,2.13852c0.25488,0.72461 1.06055,2.14819 1.12207,2.77932l-0.28711,0.13024c-2.4082,0.20349 -6.65625,0.03985 -9.1875,0.02637l-16.58936,-0.02945c-2.08008,0.00147 -6.32666,-0.07193 -8.26465,0.16936c0.18896,-1.86543 0.29443,-3.28916 0.37939,-5.16118z" fill="#c60007"/><path d="M99.32241,74.6185c5.78569,0.26913 12.70298,0.03164 18.57905,0.08527c3.69902,0.03384 10.79912,0.19075 14.19814,-0.13742c0.14692,1.48657 0.46758,3.56766 0.4459,4.98098c-0.30059,0.25536 -0.61904,0.15559 -1.1124,0.15676l-33.9605,-0.03721c1.28613,-2.22671 1.07666,-2.69523 1.51392,-4.87389z" fill="#c60007"/><path d="M3.80416,77.67794c2.55306,0.00659 5.10614,-0.00586 7.65901,-0.03721c-0.04431,1.90528 -0.04781,4.42398 0.04459,6.31314c-2.65148,-0.07589 -5.00963,-0.14313 -7.66879,0.03428c0.04402,-2.10336 0.03242,-4.20744 -0.0348,-6.31021z" fill="#c60007"/><path d="M288.60205,78.49719c1.43994,0.22488 6.01465,0.04688 7.58643,0.01069c-0.01318,0.87053 0.19629,5.63 -0.0542,6.07053c-1.08252,-0.12585 -6.26953,0.02271 -7.39014,0.10783c0.01758,-1.68772 0.05273,-4.54953 -0.14209,-6.18905z" fill="#c60007"/><path d="M135.04365,134.62559c0.92622,-0.01509 2.49009,0.09918 3.37456,0.37622c-1.33887,0.13127 -6.04292,0.21053 -7.23062,-0.05948c1.67842,-0.05772 3.51943,0.00264 5.27988,-0.05128c-0.47769,-0.06241 -0.95171,-0.16804 -1.42383,-0.26546z" fill-opacity="0.55294" fill="#c60007"/><path d="M167.36865,134.95625c-1.15576,0.31205 -4.45459,0.09098 -5.74805,-0.00381c0.80127,-0.33007 2.19141,-0.333 3.08057,-0.34238l-0.61963,0.23719c0.6665,0.17624 2.50195,0.11354 3.28711,0.109z" fill-opacity="0.67843" fill="#c60007"/></g></svg></svg>