<?xml version="1.0" encoding="UTF-8"?>
<svg xmlns="http://www.w3.org/2000/svg" xmlns:xlink="http://www.w3.org/1999/xlink" width="512px" height="512px" viewBox="0 0 512 512" version="1.1">
<g id="surface1">
<path style=" stroke:none;fill-rule:nonzero;fill:rgb(77.64706%,0%,2.745098%);fill-opacity:1;" d="M 227.273438 206.726562 C 224.769531 196.953125 222.808594 181.316406 224.453125 170.5625 C 224.765625 168.519531 226.804688 165.976562 226.789062 164.996094 C 226.425781 142.972656 227.359375 116.484375 240.371094 106.703125 C 250.011719 99.457031 263.878906 100.542969 271.902344 106.089844 C 285.8125 115.160156 287.546875 143.367188 286.917969 166.171875 C 286.90625 166.503906 289.09375 168.714844 289.335938 170.242188 C 290.078125 174.90625 289.890625 179.757812 289.644531 184.566406 C 289.324219 190.84375 288.878906 197.214844 287.640625 203.179688 C 286.613281 208.132812 285.351562 207.769531 282.859375 207.65625 C 279.65625 219.597656 277.503906 233.308594 272.296875 243.234375 C 271.464844 244.816406 267.648438 250.128906 269.050781 251.832031 C 272.867188 251.007812 278.898438 231.144531 281.027344 225.742188 C 279.792969 236.65625 279.316406 247.996094 279.179688 259.128906 C 284.859375 264.753906 291.753906 266.992188 296.945312 275.695312 C 307.796875 272.085938 319.867188 272.195312 329.386719 283.355469 C 334.933594 289.859375 337.058594 297.929688 340.988281 306.769531 C 342.496094 310.152344 346.0625 313.121094 347.921875 316.160156 C 353.019531 323.746094 358.765625 334.976562 362.128906 345.082031 C 359.355469 333.523438 361.480469 325.964844 363.351562 314.589844 C 366.691406 294.269531 365.886719 280.976562 363.496094 260.695312 C 361.023438 258.238281 357.898438 255.285156 355.589844 252.511719 C 352.5625 248.875 343.632812 234.371094 344.992188 227.433594 C 346.328125 224.457031 348.410156 225.421875 350.324219 225.726562 C 352.933594 230.292969 353.78125 232.195312 356.988281 235.640625 C 355.074219 230.65625 352.191406 226.070312 352.863281 219.515625 C 353.574219 212.597656 358.566406 211.148438 361.8125 211.710938 C 366.304688 212.484375 370.765625 212.984375 375.210938 214.238281 C 380.574219 216.054688 382.15625 220.429688 383.40625 228.917969 C 389.394531 229.085938 395.890625 230.390625 401.984375 230.804688 C 407.097656 231.152344 413.878906 230.886719 418.796875 231.953125 C 418.34375 237.210938 418.136719 240.988281 418.199219 246.355469 C 411.433594 246.148438 404.675781 245.757812 397.921875 245.183594 C 393.503906 244.832031 387.949219 244.171875 383.605469 244.335938 C 383.347656 251.929688 380.945312 264.125 381.289062 269.203125 C 382.074219 280.832031 384.800781 296.886719 386.347656 308.652344 C 390.234375 337.699219 390.34375 367.9375 386.664062 397.070312 C 385.710938 404.429688 384.324219 411.074219 383.234375 418.121094 C 367.390625 418.039062 340.734375 415.722656 328.609375 394.84375 C 325.585938 389.632812 322.65625 381.359375 320.335938 374.964844 C 316.0625 388.585938 302.691406 400.289062 294.539062 403.757812 C 291.753906 404.9375 283.820312 408.296875 281.089844 407.8125 C 279.574219 407.839844 277.199219 407.851562 275.832031 408.851562 C 278.039062 409.136719 283.671875 409.808594 285.640625 408.863281 C 291.90625 408.789062 299.359375 408.605469 305.511719 407.171875 C 307.660156 406.671875 310.941406 404.542969 313.699219 403.71875 C 312.523438 412.058594 312.289062 416.070312 309.257812 423.613281 C 308.480469 425.546875 306.09375 431.691406 305.597656 433.679688 C 301.191406 451.453125 297.378906 478.0625 296.585938 496.96875 C 290.085938 496.960938 283.6875 497.566406 277.199219 497.742188 C 265.707031 498.058594 254.128906 497.410156 242.644531 497.902344 C 233.917969 498.273438 225.269531 496.972656 216.621094 497.152344 C 215.011719 475.699219 212.003906 452.859375 207.101562 432.933594 C 206.546875 430.664062 204.296875 425.664062 203.378906 423.246094 C 200.992188 416.96875 200.15625 411.058594 198.953125 403.925781 C 202.101562 404.816406 205.269531 406.5 208.460938 407.328125 C 213.554688 408.648438 218.75 408.675781 223.894531 408.820312 C 225.921875 409.636719 233.949219 409.398438 236.234375 409 C 234.722656 408.160156 232.054688 407.8125 230.472656 407.859375 C 216.488281 406.054688 201.75 396.984375 192.351562 377.726562 C 191.933594 376.871094 191.535156 375.992188 191.148438 375.089844 C 185.074219 394.605469 179.179688 404.578125 166.789062 410.761719 C 155.929688 416.183594 140.867188 418.613281 129.511719 418.367188 C 119.785156 365.914062 122.691406 322.664062 131.507812 270.523438 C 133.078125 261.238281 130.460938 251.132812 129.511719 242.007812 C 122.421875 242.164062 115.328125 242.632812 108.25 243.410156 C 104.496094 243.875 97.382812 245.242188 94.027344 244.988281 C 93.867188 241.488281 93.449219 234.238281 94.65625 231.429688 C 97.53125 228.785156 125.167969 227.066406 130.066406 226.761719 C 132.886719 211.554688 135.757812 214.355469 143.890625 212.941406 C 148.617188 212.117188 157.304688 206.707031 159.390625 217.289062 C 159.769531 219.246094 159.636719 222.484375 160.28125 223.558594 C 163.21875 224.332031 167.898438 221.039062 166.785156 231.167969 C 165.878906 239.382812 161.542969 246.480469 157.941406 251.289062 C 155.066406 255.132812 152.472656 255.945312 149.558594 258.5625 C 148.480469 267.96875 146.996094 278.878906 147.085938 288.492188 C 147.167969 297.566406 148.339844 307.144531 149.5 315.964844 C 151.378906 328.445312 153.601562 331.46875 150.605469 344.214844 C 154.546875 334.566406 158.5 324.875 163.675781 317.152344 C 166.058594 313.601562 169.195312 310.914062 171.425781 307.207031 C 173.109375 304.398438 174.703125 298.847656 176.085938 295.300781 C 184.59375 273.488281 202.203125 270.058594 215.625 276.394531 C 222.703125 267.03125 226.761719 265.605469 234.472656 259.929688 C 234.527344 248.902344 233.480469 236.507812 232.730469 225.417969 C 234.382812 230.472656 241.0625 251.46875 244.578125 251.390625 C 245.386719 249.320312 243.292969 246.082031 242.445312 244.605469 C 236.707031 234.59375 234.34375 220.671875 230.910156 208.242188 C 229.359375 207.824219 228.757812 207.648438 227.273438 206.726562 Z M 224.03125 393.929688 L 224.4375 393.429688 C 223.789062 390.652344 217.777344 387.890625 216.148438 387.867188 L 215.980469 387.863281 C 215.882812 387.871094 215.785156 387.875 215.6875 387.882812 L 214.847656 389.136719 L 214.890625 389.644531 C 217.414062 391.847656 221.234375 393.367188 224.03125 393.929688 Z M 290.808594 393.308594 C 292.871094 392.238281 295.421875 391.089844 297.21875 389.050781 C 297.289062 388.703125 297.203125 388.6875 297.066406 388.144531 L 297.335938 388.4375 L 297.074219 389.046875 L 296.664062 387.984375 C 295.816406 387.875 295.148438 387.730469 294.296875 387.980469 C 292.714844 388.804688 288.828125 390.871094 288.101562 393.328125 C 288.648438 394.222656 290.09375 393.59375 290.808594 393.308594 Z M 290.808594 393.308594 "/>
<path style=" stroke:none;fill-rule:nonzero;fill:rgb(77.64706%,0%,2.745098%);fill-opacity:1;" d="M 421.253906 140.363281 C 427.835938 139.640625 447.527344 140.636719 451.914062 150.160156 C 460.058594 167.839844 459.226562 194.027344 459.890625 215.324219 C 461.003906 251.109375 459.265625 285.8125 452.441406 319.761719 C 446.941406 347.644531 443.003906 342.292969 428.976562 340.953125 C 423.949219 340.738281 414.796875 342.238281 410.878906 335.53125 C 404.695312 324.953125 405.03125 266.046875 404.996094 249.75 C 408.546875 250.398438 417.144531 251.058594 420.773438 251.144531 C 420.628906 243.214844 420.648438 236.039062 420.691406 228.089844 C 419.058594 228.140625 407.230469 227.761719 406.441406 227.332031 C 405.859375 224.894531 406.441406 218.242188 406.65625 215.3125 C 408.335938 192.554688 410.464844 168.445312 416.566406 147.941406 C 417.714844 144.082031 419.015625 141.980469 421.253906 140.363281 Z M 421.253906 140.363281 "/>
<path style=" stroke:none;fill-rule:nonzero;fill:rgb(77.64706%,0%,2.745098%);fill-opacity:1;" d="M 87.570312 141.339844 L 88.023438 141.304688 C 90.140625 141.15625 92.121094 141.214844 93.691406 144.136719 C 100.988281 157.714844 105.785156 208.503906 106.042969 225.933594 C 101.273438 226.140625 96.546875 227.09375 91.824219 227.289062 C 92.042969 232.101562 92.046875 247.519531 91.875 252.265625 C 96.578125 251.183594 102.367188 250.710938 107.191406 249.960938 C 107.191406 266.976562 107.703125 323.824219 101.285156 335.886719 C 98.019531 342.019531 90.933594 340.96875 86.542969 341.242188 C 82.191406 341.527344 77.882812 342.730469 73.539062 343.199219 C 70.816406 343.492188 68.332031 342.589844 66.261719 339.246094 C 58.769531 327.144531 53.34375 273.835938 52.835938 255.203125 C 52.484375 242.253906 52.523438 229.226562 52.625 216.265625 C 52.78125 196.605469 52.214844 164.957031 60.175781 149.675781 C 61.40625 147.316406 62.890625 145.789062 64.597656 144.765625 C 70.542969 141.207031 81.1875 141.785156 87.570312 141.339844 Z M 87.570312 141.339844 "/>
<path style=" stroke:none;fill-rule:nonzero;fill:rgb(77.64706%,0%,2.745098%);fill-opacity:1;" d="M 42.777344 153.753906 C 45.171875 153.375 49.03125 153.511719 51.535156 153.464844 C 49.839844 163.984375 48.390625 171.5625 47.40625 182.640625 C 45.984375 198.605469 46.199219 211.941406 46.460938 227.914062 C 46.925781 256.542969 48.734375 284.761719 53.183594 312.371094 C 54.136719 318.300781 55.71875 325.535156 56.929688 331.425781 C 52.746094 330.984375 48.554688 330.6875 44.363281 330.542969 C 42.070312 330.367188 39.65625 330.421875 37.347656 330.410156 C 25.898438 303.984375 24.824219 248.882812 24.476562 216.445312 C 24.285156 198.863281 24.246094 174.324219 29.871094 159.429688 C 32.023438 153.730469 39.296875 154.191406 42.777344 153.753906 Z M 42.777344 153.753906 "/>
<path style=" stroke:none;fill-rule:nonzero;fill:rgb(77.64706%,0%,2.745098%);fill-opacity:1;" d="M 460.355469 153.628906 C 464.046875 153.605469 476.589844 152.945312 480.34375 156.984375 C 481.886719 158.644531 483.585938 164.40625 484.101562 167.667969 C 490.585938 208.683594 488.835938 294.753906 475.226562 328.847656 C 473.199219 333.238281 467.753906 331.3125 464.699219 331.628906 C 461.785156 331.929688 458.503906 332.050781 455.59375 332 C 458.242188 320.835938 460.375 309.304688 461.96875 297.527344 C 466.53125 263.363281 467.574219 217.679688 464.695312 182.726562 C 463.785156 171.699219 461.503906 163.339844 460.355469 153.628906 Z M 460.355469 153.628906 "/>
<path style=" stroke:none;fill-rule:nonzero;fill:rgb(77.64706%,0%,2.745098%);fill-opacity:1;" d="M 287.34375 226.328125 C 305.515625 225.699219 324.003906 226.828125 342.246094 226.167969 C 342.609375 228.515625 342.914062 230.367188 343.367188 232.644531 C 343.800781 234.839844 345.175781 239.152344 345.28125 241.066406 L 344.792969 241.460938 C 340.683594 242.078125 333.433594 241.582031 329.113281 241.539062 L 300.800781 241.453125 C 297.25 241.457031 290.003906 241.234375 286.695312 241.964844 C 287.015625 236.3125 287.199219 232 287.34375 226.328125 Z M 287.34375 226.328125 "/>
<path style=" stroke:none;fill-rule:nonzero;fill:rgb(77.64706%,0%,2.745098%);fill-opacity:1;" d="M 169.511719 226.0625 C 179.382812 226.878906 191.191406 226.160156 201.21875 226.320312 C 207.53125 226.425781 219.648438 226.898438 225.449219 225.90625 C 225.699219 230.410156 226.246094 236.714844 226.210938 240.996094 C 225.699219 241.769531 225.15625 241.46875 224.3125 241.46875 L 166.351562 241.359375 C 168.546875 234.613281 168.191406 233.191406 168.9375 226.589844 Z M 169.511719 226.0625 "/>
<path style=" stroke:none;fill-rule:nonzero;fill:rgb(77.64706%,0%,2.745098%);fill-opacity:1;" d="M 6.492188 235.332031 C 10.851562 235.351562 15.207031 235.3125 19.5625 235.21875 C 19.488281 240.992188 19.480469 248.621094 19.640625 254.34375 C 15.113281 254.117188 11.089844 253.910156 6.550781 254.449219 C 6.628906 248.078125 6.605469 241.703125 6.492188 235.332031 Z M 6.492188 235.332031 "/>
<path style=" stroke:none;fill-rule:nonzero;fill:rgb(77.64706%,0%,2.745098%);fill-opacity:1;" d="M 492.546875 237.8125 C 495.003906 238.496094 502.8125 237.957031 505.496094 237.847656 C 505.472656 240.484375 505.828125 254.902344 505.402344 256.238281 C 503.554688 255.855469 494.703125 256.304688 492.789062 256.5625 C 492.820312 251.449219 492.878906 242.78125 492.546875 237.8125 Z M 492.546875 237.8125 "/>
<path style=" stroke:none;fill-rule:nonzero;fill:rgb(77.64706%,0%,2.745098%);fill-opacity:0.552941;" d="M 230.472656 407.859375 C 232.054688 407.8125 234.722656 408.160156 236.234375 409 C 233.949219 409.398438 225.921875 409.636719 223.894531 408.820312 C 226.757812 408.644531 229.898438 408.828125 232.90625 408.664062 C 232.089844 408.476562 231.28125 408.15625 230.472656 407.859375 Z M 230.472656 407.859375 "/>
<path style=" stroke:none;fill-rule:nonzero;fill:rgb(77.64706%,0%,2.745098%);fill-opacity:0.678431;" d="M 285.640625 408.863281 C 283.671875 409.808594 278.039062 409.136719 275.832031 408.851562 C 277.199219 407.851562 279.574219 407.839844 281.089844 407.8125 L 280.03125 408.53125 C 281.171875 409.066406 284.300781 408.875 285.640625 408.863281 Z M 285.640625 408.863281 "/>
</g>
</svg>
